<?xml version="1.0" encoding="UTF-8" standalone="no"?>
<svg
   xmlns:dc="http://purl.org/dc/elements/1.1/"
   xmlns:cc="http://creativecommons.org/ns#"
   xmlns:rdf="http://www.w3.org/1999/02/22-rdf-syntax-ns#"
   xmlns:svg="http://www.w3.org/2000/svg"
   xmlns="http://www.w3.org/2000/svg"
   xmlns:sodipodi="http://sodipodi.sourceforge.net/DTD/sodipodi-0.dtd"
   xmlns:inkscape="http://www.inkscape.org/namespaces/inkscape"
   viewBox="0 0 300 82"
   height="82"
   width="300"
   version="1.1"
   id="svg957"
   sodipodi:docname="Advertisement.svg"
   inkscape:version="1.0 (4035a4fb49, 2020-05-01)">
  <defs
     id="defs2">
    <rect
       id="rect835"
       height="59.517132"
       width="297.85718"
       y="127.77775"
       x="32.739731" />
    <rect
       x="32.739731"
       y="127.77775"
       width="297.85718"
       height="59.517132"
       id="rect835-1" />
    <rect
       x="32.739731"
       y="127.77775"
       width="297.85718"
       height="59.517132"
       id="rect848" />
    <rect
       id="rect835-1-6"
       height="59.517132"
       width="297.85718"
       y="127.77775"
       x="32.739731" />
    <rect
       id="rect907"
       height="59.517132"
       width="297.85718"
       y="127.77775"
       x="32.739731" />
    <rect
       x="32.739731"
       y="127.77775"
       width="297.85718"
       height="59.517132"
       id="rect835-8" />
    <rect
       x="32.739731"
       y="127.77775"
       width="297.85718"
       height="59.517132"
       id="rect910" />
  </defs>
  <sodipodi:namedview
     inkscape:document-rotation="0"
     inkscape:snap-global="false"
     inkscape:window-maximized="0"
     inkscape:window-y="0"
     inkscape:window-x="0"
     inkscape:window-height="744"
     inkscape:window-width="1364"
     units="px"
     showgrid="false"
     inkscape:current-layer="layer1"
     inkscape:document-units="px"
     inkscape:cy="109.74533"
     inkscape:cx="-23.926003"
     inkscape:zoom="0.7071068"
     inkscape:pageshadow="2"
     inkscape:pageopacity="0.0"
     borderopacity="1.0"
     bordercolor="#666666"
     pagecolor="#ffffff"
     id="base" />
  <metadata
     id="metadata5">
    <rdf:RDF>
      <cc:Work
         rdf:about="">
        <dc:format>image/svg+xml</dc:format>
        <dc:type
           rdf:resource="http://purl.org/dc/dcmitype/StillImage" />
        <dc:title />
      </cc:Work>
    </rdf:RDF>
  </metadata>
  <g
     transform="translate(0,-93.799984)"
     id="layer1"
     inkscape:groupmode="layer"
     inkscape:label="Layer 1">
    <rect
       style="fill:#002255;fill-opacity:1;stroke:none;stroke-width:2.37115;stroke-linecap:round;stroke-linejoin:round;stroke-miterlimit:4;stroke-dasharray:none;paint-order:markers fill stroke;stop-color:#000000"
       id="rect868-3"
       width="300"
       height="41"
       x="0"
       y="134.79999" />
    <rect
       y="93.799988"
       x="0"
       height="41"
       width="300"
       id="rect868"
       style="fill:#ffff00;stroke:none;stroke-width:2.37115;stroke-linecap:round;stroke-linejoin:round;stroke-miterlimit:4;stroke-dasharray:none;paint-order:markers fill stroke;stop-color:#000000" />
    <g
       id="g831">
      <text
         id="text863"
         y="196.45831"
         x="174.625"
         style="font-style:normal;font-weight:normal;font-size:10.5833px;line-height:1.25;font-family:sans-serif;letter-spacing:0px;word-spacing:0px;fill:#000000;fill-opacity:1;stroke:none;stroke-width:0.264583"
         xml:space="preserve" />
    </g>
    <g
       id="all_text">
      <g
         aria-label="ANNOUNCE"
         transform="matrix(0.8,0,0,0.8,4.5688311,-10.155342)"
         id="announce_text"
         style="font-style:normal;font-weight:normal;font-size:40px;line-height:1.25;font-family:sans-serif;letter-spacing:0px;word-spacing:0px;white-space:pre;shape-inside:url(#rect835);fill:#002255;fill-opacity:1;stroke:none">
        <path
           d="m 59.413181,150.57734 c 0.24,-0.576 0.528,-0.816 0.912,-0.816 h 1.2 c 0.384,0 0.672,0.24 0.912,0.816 l 2.256,7.296 h -7.536 z m -2.736,22.752 v -6.72 h 8.496 v 6.72 c 0,1.2 0.576,1.728 1.872,1.728 h 7.248 c 1.2,0 1.728,-0.528 1.728,-1.728 v -12.672 c 0,-1.92 -0.576,-4.32 -1.872,-7.68 l -4.176,-10.896 c -0.384,-1.104 -1.152,-1.584 -2.4,-1.584 h -12.912 c -1.296,0 -2.064,0.48 -2.448,1.584 l -4.176,10.896 c -1.296,3.36 -1.872,5.76 -1.872,7.68 v 12.672 c 0,1.2 0.528,1.728 1.728,1.728 h 7.056 c 1.2,0 1.728,-0.528 1.728,-1.728 z"
           style="font-style:normal;font-variant:normal;font-weight:normal;font-stretch:normal;font-size:48px;font-family:Bungee;-inkscape-font-specification:Bungee;text-align:center;text-anchor:middle;fill:#002255;fill-opacity:1"
           id="path971" />
        <path
           d="m 90.853159,175.05734 c 1.2,0 1.728,-0.528 1.728,-1.728 v -15.84 l 8.208001,9.936 v 5.904 c 0,1.2 0.528,1.728 1.728,1.728 h 7.2 c 1.2,0 1.728,-0.528 1.728,-1.728 v -31.104 c 0,-1.2 -0.528,-1.728 -1.728,-1.728 h -7.2 c -1.2,0 -1.728,0.528 -1.728,1.728 v 10.224 l -9.312001,-10.656 c -0.816,-0.96 -1.584,-1.296 -2.832,-1.296 h -4.992 c -1.2,0 -1.728,0.528 -1.728,1.728 v 31.104 c 0,1.2 0.528,1.728 1.728,1.728 z"
           style="font-style:normal;font-variant:normal;font-weight:normal;font-stretch:normal;font-size:48px;font-family:Bungee;-inkscape-font-specification:Bungee;text-align:center;text-anchor:middle;fill:#002255;fill-opacity:1"
           id="path973" />
        <path
           d="m 126.99708,175.05734 c 1.2,0 1.728,-0.528 1.728,-1.728 v -15.84 l 8.208,9.936 v 5.904 c 0,1.2 0.528,1.728 1.728,1.728 h 7.2 c 1.2,0 1.728,-0.528 1.728,-1.728 v -31.104 c 0,-1.2 -0.528,-1.728 -1.728,-1.728 h -7.2 c -1.2,0 -1.728,0.528 -1.728,1.728 v 10.224 l -9.312,-10.656 c -0.816,-0.96 -1.584,-1.296 -2.832,-1.296 h -4.992 c -1.2,0 -1.728,0.528 -1.728,1.728 v 31.104 c 0,1.2 0.528,1.728 1.728,1.728 z"
           style="font-style:normal;font-variant:normal;font-weight:normal;font-stretch:normal;font-size:48px;font-family:Bungee;-inkscape-font-specification:Bungee;text-align:center;text-anchor:middle;fill:#002255;fill-opacity:1"
           id="path975" />
        <path
           d="m 183.493,165.98534 v -16.368 c 0,-5.856 -2.88,-9.84 -14.88,-9.84 -12,0 -14.928,3.984 -14.928,9.84 v 16.368 c 0,5.856 2.928,9.792 14.928,9.792 12,0 14.88,-3.936 14.88,-9.792 z m -18.912,-1.728 v -12.912 c 0,-1.248 0.576,-2.208 4.032,-2.208 3.504,0 4.032,0.96 4.032,2.208 v 12.912 c 0,1.296 -0.528,2.256 -4.032,2.256 -3.456,0 -4.032,-0.96 -4.032,-2.256 z"
           style="font-style:normal;font-variant:normal;font-weight:normal;font-stretch:normal;font-size:48px;font-family:Bungee;-inkscape-font-specification:Bungee;text-align:center;text-anchor:middle;fill:#002255;fill-opacity:1"
           id="path977" />
        <path
           d="m 219.01298,165.98534 v -23.76 c 0,-1.2 -0.528,-1.728 -1.728,-1.728 h -7.296 c -1.248,0 -1.728,0.528 -1.728,1.728 v 21.888 c 0,1.296 -0.576,2.256 -3.984,2.256 -3.36,0 -3.936,-0.96 -3.936,-2.256 v -21.888 c 0,-1.2 -0.528,-1.728 -1.728,-1.728 h -7.536 c -1.2,0 -1.728,0.528 -1.728,1.728 v 23.76 c 0,5.856 2.928,9.792 14.832,9.792 11.904,0 14.832,-3.936 14.832,-9.792 z"
           style="font-style:normal;font-variant:normal;font-weight:normal;font-stretch:normal;font-size:48px;font-family:Bungee;-inkscape-font-specification:Bungee;text-align:center;text-anchor:middle;fill:#002255;fill-opacity:1"
           id="path979" />
        <path
           d="m 234.3249,175.05734 c 1.2,0 1.728,-0.528 1.728,-1.728 v -15.84 l 8.208,9.936 v 5.904 c 0,1.2 0.528,1.728 1.728,1.728 h 7.2 c 1.2,0 1.728,-0.528 1.728,-1.728 v -31.104 c 0,-1.2 -0.528,-1.728 -1.728,-1.728 h -7.2 c -1.2,0 -1.728,0.528 -1.728,1.728 v 10.224 l -9.312,-10.656 c -0.816,-0.96 -1.584,-1.296 -2.832,-1.296 h -4.992 c -1.2,0 -1.728,0.528 -1.728,1.728 v 31.104 c 0,1.2 0.528,1.728 1.728,1.728 z"
           style="font-style:normal;font-variant:normal;font-weight:normal;font-stretch:normal;font-size:48px;font-family:Bungee;-inkscape-font-specification:Bungee;text-align:center;text-anchor:middle;fill:#002255;fill-opacity:1"
           id="path981" />
        <path
           d="m 284.53282,175.05734 c 1.2,0 1.728,-0.528 1.728,-1.728 v -5.712 c 0,-1.2 -0.528,-1.728 -1.728,-1.728 h -9.648 c -2.016,0 -2.928,-0.72 -2.928,-2.304 v -11.424 c 0,-1.632 0.912,-2.4 2.928,-2.4 h 9.648 c 1.2,0 1.728,-0.528 1.728,-1.728 v -5.808 c 0,-1.2 -0.528,-1.728 -1.728,-1.728 h -11.712 c -8.064,0 -11.808,3.12 -11.808,9.84 v 14.928 c 0,6.672 3.744,9.792 11.808,9.792 z"
           style="font-style:normal;font-variant:normal;font-weight:normal;font-stretch:normal;font-size:48px;font-family:Bungee;-inkscape-font-specification:Bungee;text-align:center;text-anchor:middle;fill:#002255;fill-opacity:1"
           id="path983" />
        <path
           d="m 315.68474,175.05734 c 1.2,0 1.728,-0.528 1.728,-1.728 v -5.616 c 0,-1.2 -0.528,-1.728 -1.728,-1.728 h -13.248 v -4.128 h 9.36 c 1.2,0 1.728,-0.528 1.728,-1.728 v -5.136 c 0,-1.2 -0.528,-1.728 -1.728,-1.728 h -9.36 v -3.696 h 13.248 c 1.2,0 1.728,-0.528 1.728,-1.728 v -5.616 c 0,-1.2 -0.528,-1.728 -1.728,-1.728 h -22.272 c -1.2,0 -1.728,0.528 -1.728,1.728 v 31.104 c 0,1.2 0.528,1.728 1.728,1.728 z"
           style="font-style:normal;font-variant:normal;font-weight:normal;font-stretch:normal;font-size:48px;font-family:Bungee;-inkscape-font-specification:Bungee;text-align:center;text-anchor:middle;fill:#002255;fill-opacity:1"
           id="path985" />
      </g>
      <g
         aria-label="YOUR"
         transform="matrix(0.8,0,0,0.8,4.554437,29.765298)"
         id="your_text"
         style="font-style:normal;font-weight:normal;font-size:40px;line-height:1.25;font-family:sans-serif;letter-spacing:0px;word-spacing:0px;white-space:pre;shape-inside:url(#rect835-1);fill:#ffff00;fill-opacity:1;stroke:none">
        <path
           d="m 132.15704,175.05734 c 1.2,0 1.728,-0.528 1.728,-1.728 v -6.096 l 7.296,-9.888 c 1.44,-1.968 1.824,-2.928 1.824,-5.904 v -9.216 c 0,-1.2 -0.528,-1.728 -1.728,-1.728 h -7.152 c -1.2,0 -1.728,0.528 -1.728,1.728 v 7.872 c 0,0.672 0,1.344 -0.432,2.016 l -2.208,3.456 c -0.336,0.576 -0.624,0.816 -1.152,0.816 h -0.48 c -0.528,0 -0.816,-0.24 -1.152,-0.816 l -2.208,-3.456 c -0.432,-0.672 -0.432,-1.344 -0.432,-2.016 v -7.872 c 0,-1.2 -0.528,-1.728 -1.728,-1.728 h -7.392 c -1.2,0 -1.728,0.528 -1.728,1.728 v 9.216 c 0,2.976 0.336,3.936 1.824,5.904 l 7.344,9.84 v 6.144 c 0,1.2 0.48,1.728 1.728,1.728 z"
           style="font-style:normal;font-variant:normal;font-weight:normal;font-stretch:normal;font-size:48px;font-family:Bungee;-inkscape-font-specification:Bungee;text-align:center;text-anchor:middle;fill:#ffff00;fill-opacity:1"
           id="path962" />
        <path
           d="m 177.75704,165.98534 v -16.368 c 0,-5.856 -2.88,-9.84 -14.88,-9.84 -12,0 -14.928,3.984 -14.928,9.84 v 16.368 c 0,5.856 2.928,9.792 14.928,9.792 12,0 14.88,-3.936 14.88,-9.792 z m -18.912,-1.728 v -12.912 c 0,-1.248 0.576,-2.208 4.032,-2.208 3.504,0 4.032,0.96 4.032,2.208 v 12.912 c 0,1.296 -0.528,2.256 -4.032,2.256 -3.456,0 -4.032,-0.96 -4.032,-2.256 z"
           style="font-style:normal;font-variant:normal;font-weight:normal;font-stretch:normal;font-size:48px;font-family:Bungee;-inkscape-font-specification:Bungee;text-align:center;text-anchor:middle;fill:#ffff00;fill-opacity:1"
           id="path964" />
        <path
           d="m 213.27702,165.98534 v -23.76 c 0,-1.2 -0.528,-1.728 -1.728,-1.728 h -7.296 c -1.248,0 -1.728,0.528 -1.728,1.728 v 21.888 c 0,1.296 -0.576,2.256 -3.984,2.256 -3.36,0 -3.936,-0.96 -3.936,-2.256 v -21.888 c 0,-1.2 -0.528,-1.728 -1.728,-1.728 h -7.536 c -1.2,0 -1.728,0.528 -1.728,1.728 v 23.76 c 0,5.856 2.928,9.792 14.832,9.792 11.904,0 14.832,-3.936 14.832,-9.792 z"
           style="font-style:normal;font-variant:normal;font-weight:normal;font-stretch:normal;font-size:48px;font-family:Bungee;-inkscape-font-specification:Bungee;text-align:center;text-anchor:middle;fill:#ffff00;fill-opacity:1"
           id="path966" />
        <path
           d="m 230.50894,149.13734 h 3.6 c 1.68,0 2.112,0.96 2.112,2.256 v 1.632 c 0,1.296 -0.432,2.256 -2.112,2.256 h -3.6 z m -1.728,25.92 c 1.2,0 1.728,-0.528 1.728,-1.728 v -9.408 h 6.72 c 1.344,0 1.824,0.624 1.824,2.064 v 7.344 c 0,1.2 0.528,1.728 1.728,1.728 h 7.44 c 1.2,0 1.728,-0.528 1.728,-1.728 v -10.176 c 0,-4.032 -2.304,-6.576 -5.808,-6.96 2.016,-0.864 2.688,-2.784 2.688,-5.472 v -2.208 c 0,-4.752 -2.256,-8.016 -9.456,-8.016 h -15.984 c -1.2,0 -1.728,0.528 -1.728,1.728 v 31.104 c 0,1.2 0.528,1.728 1.728,1.728 z"
           style="font-style:normal;font-variant:normal;font-weight:normal;font-stretch:normal;font-size:48px;font-family:Bungee;-inkscape-font-specification:Bungee;text-align:center;text-anchor:middle;fill:#ffff00;fill-opacity:1"
           id="path968" />
      </g>
      <g
         aria-label="BUSINESS"
         transform="matrix(0.8,0,0,0.8,4.6840311,-91.52539)"
         id="business_text"
         style="font-style:normal;font-weight:normal;font-size:40px;line-height:1.25;font-family:sans-serif;letter-spacing:0px;word-spacing:0px;white-space:pre;shape-inside:url(#rect835-8);fill:#002255;fill-opacity:1;stroke:none">
        <path
           d="m 74.869141,175.05734 c 6.384,0 9.312,-2.496 9.312,-7.872 v -4.416 c 0,-4.704 -1.92,-7.056 -6.048,-7.44 1.92,-0.816 2.832,-2.496 2.832,-5.184 v -2.304 c 0,-5.04 -2.928,-7.344 -9.216,-7.344 h -15.312 c -1.2,0 -1.728,0.528 -1.728,1.728 v 31.104 c 0,1.2 0.528,1.728 1.728,1.728 z m -9.36,-26.4 h 4.08 c 1.248,0 1.824,0.624 1.824,1.92 v 1.344 c 0,1.296 -0.576,1.92 -1.824,1.92 h -4.08 z m 0,12.576 h 6.24 c 1.248,0 1.824,0.576 1.824,1.872 v 1.872 c 0,1.296 -0.576,1.92 -1.824,1.92 h -6.24 z"
           style="font-style:normal;font-variant:normal;font-weight:normal;font-stretch:normal;font-size:48px;font-family:Bungee;-inkscape-font-specification:Bungee;text-align:center;text-anchor:middle;fill:#002255;fill-opacity:1"
           id="path997" />
        <path
           d="m 118.93307,165.98534 v -23.76 c 0,-1.2 -0.528,-1.728 -1.728,-1.728 h -7.296 c -1.248,0 -1.728,0.528 -1.728,1.728 v 21.888 c 0,1.296 -0.576,2.256 -3.984,2.256 -3.36,0 -3.936,-0.96 -3.936,-2.256 v -21.888 c 0,-1.2 -0.528003,-1.728 -1.728003,-1.728 h -7.536 c -1.2,0 -1.728,0.528 -1.728,1.728 v 23.76 c 0,5.856 2.928,9.792 14.832003,9.792 11.904,0 14.832,-3.936 14.832,-9.792 z"
           style="font-style:normal;font-variant:normal;font-weight:normal;font-stretch:normal;font-size:48px;font-family:Bungee;-inkscape-font-specification:Bungee;text-align:center;text-anchor:middle;fill:#002255;fill-opacity:1"
           id="path999" />
        <path
           d="m 141.34899,175.05734 c 6.192,0 9.936,-2.976 9.936,-8.448 v -5.04 c 0,-5.376 -2.976,-7.296 -7.488,-7.968 l -7.152,-0.96 c -0.816,-0.096 -1.296,-0.672 -1.296,-1.536 0,-0.864 0.48,-1.44 1.296,-1.44 h 11.184 c 1.2,0 1.728,-0.528 1.728,-1.728 v -5.712 c 0,-1.2 -0.528,-1.728 -1.728,-1.728 h -13.44 c -6.24,0 -9.936,2.976 -9.936,8.448 v 5.04 c 0,5.376 2.928,7.296 7.44,7.968 l 7.2,1.008 c 0.816,0.096 1.248,0.528 1.248,1.632 0,0.768 -0.432,1.392 -1.248,1.392 h -12.912 c -1.2,0 -1.728,0.528 -1.728,1.728 v 5.616 c 0,1.2 0.528,1.728 1.728,1.728 z"
           style="font-style:normal;font-variant:normal;font-weight:normal;font-stretch:normal;font-size:48px;font-family:Bungee;-inkscape-font-specification:Bungee;text-align:center;text-anchor:middle;fill:#002255;fill-opacity:1"
           id="path1001" />
        <path
           d="m 157.47697,175.05734 h 20.448 c 1.2,0 1.728,-0.528 1.728,-1.728 v -5.712 c 0,-1.2 -0.528,-1.728 -1.728,-1.728 h -4.656 v -16.128 h 4.656 c 1.2,0 1.728,-0.528 1.728,-1.728 v -5.808 c 0,-1.2 -0.528,-1.728 -1.728,-1.728 h -20.448 c -1.2,0 -1.728,0.528 -1.728,1.728 v 5.808 c 0,1.2 0.528,1.728 1.728,1.728 h 4.752 v 16.128 h -4.752 c -1.2,0 -1.728,0.528 -1.728,1.728 v 5.712 c 0,1.2 0.528,1.728 1.728,1.728 z"
           style="font-style:normal;font-variant:normal;font-weight:normal;font-stretch:normal;font-size:48px;font-family:Bungee;-inkscape-font-specification:Bungee;text-align:center;text-anchor:middle;fill:#002255;fill-opacity:1"
           id="path1003" />
        <path
           d="m 194.48495,175.05734 c 1.2,0 1.728,-0.528 1.728,-1.728 v -15.84 l 8.208,9.936 v 5.904 c 0,1.2 0.528,1.728 1.728,1.728 h 7.2 c 1.2,0 1.728,-0.528 1.728,-1.728 v -31.104 c 0,-1.2 -0.528,-1.728 -1.728,-1.728 h -7.2 c -1.2,0 -1.728,0.528 -1.728,1.728 v 10.224 l -9.312,-10.656 c -0.816,-0.96 -1.584,-1.296 -2.832,-1.296 h -4.992 c -1.2,0 -1.728,0.528 -1.728,1.728 v 31.104 c 0,1.2 0.528,1.728 1.728,1.728 z"
           style="font-style:normal;font-variant:normal;font-weight:normal;font-stretch:normal;font-size:48px;font-family:Bungee;-inkscape-font-specification:Bungee;text-align:center;text-anchor:middle;fill:#002255;fill-opacity:1"
           id="path1005" />
        <path
           d="m 245.70087,175.05734 c 1.2,0 1.728,-0.528 1.728,-1.728 v -5.616 c 0,-1.2 -0.528,-1.728 -1.728,-1.728 h -13.248 v -4.128 h 9.36 c 1.2,0 1.728,-0.528 1.728,-1.728 v -5.136 c 0,-1.2 -0.528,-1.728 -1.728,-1.728 h -9.36 v -3.696 h 13.248 c 1.2,0 1.728,-0.528 1.728,-1.728 v -5.616 c 0,-1.2 -0.528,-1.728 -1.728,-1.728 h -22.272 c -1.2,0 -1.728,0.528 -1.728,1.728 v 31.104 c 0,1.2 0.528,1.728 1.728,1.728 z"
           style="font-style:normal;font-variant:normal;font-weight:normal;font-stretch:normal;font-size:48px;font-family:Bungee;-inkscape-font-specification:Bungee;text-align:center;text-anchor:middle;fill:#002255;fill-opacity:1"
           id="path1007" />
        <path
           d="m 269.12484,175.05734 c 6.192,0 9.936,-2.976 9.936,-8.448 v -5.04 c 0,-5.376 -2.976,-7.296 -7.488,-7.968 l -7.152,-0.96 c -0.816,-0.096 -1.296,-0.672 -1.296,-1.536 0,-0.864 0.48,-1.44 1.296,-1.44 h 11.184 c 1.2,0 1.728,-0.528 1.728,-1.728 v -5.712 c 0,-1.2 -0.528,-1.728 -1.728,-1.728 h -13.44 c -6.24,0 -9.936,2.976 -9.936,8.448 v 5.04 c 0,5.376 2.928,7.296 7.44,7.968 l 7.2,1.008 c 0.816,0.096 1.248,0.528 1.248,1.632 0,0.768 -0.432,1.392 -1.248,1.392 h -12.912 c -1.2,0 -1.728,0.528 -1.728,1.728 v 5.616 c 0,1.2 0.528,1.728 1.728,1.728 z"
           style="font-style:normal;font-variant:normal;font-weight:normal;font-stretch:normal;font-size:48px;font-family:Bungee;-inkscape-font-specification:Bungee;text-align:center;text-anchor:middle;fill:#002255;fill-opacity:1"
           id="path1009" />
        <path
           d="m 300.08477,175.05734 c 6.192,0 9.936,-2.976 9.936,-8.448 v -5.04 c 0,-5.376 -2.976,-7.296 -7.488,-7.968 l -7.152,-0.96 c -0.816,-0.096 -1.296,-0.672 -1.296,-1.536 0,-0.864 0.48,-1.44 1.296,-1.44 h 11.184 c 1.2,0 1.728,-0.528 1.728,-1.728 v -5.712 c 0,-1.2 -0.528,-1.728 -1.728,-1.728 h -13.44 c -6.24,0 -9.936,2.976 -9.936,8.448 v 5.04 c 0,5.376 2.928,7.296 7.44,7.968 l 7.2,1.008 c 0.816,0.096 1.248,0.528 1.248,1.632 0,0.768 -0.432,1.392 -1.248,1.392 h -12.912 c -1.2,0 -1.728,0.528 -1.728,1.728 v 5.616 c 0,1.2 0.528,1.728 1.728,1.728 z"
           style="font-style:normal;font-variant:normal;font-weight:normal;font-stretch:normal;font-size:48px;font-family:Bungee;-inkscape-font-specification:Bungee;text-align:center;text-anchor:middle;fill:#002255;fill-opacity:1"
           id="path1011" />
      </g>
      <g
         aria-label="HERE"
         transform="matrix(0.8,0,0,0.8,4.640832,-51.609223)"
         id="here_text"
         style="font-style:normal;font-weight:normal;font-size:40px;line-height:1.25;font-family:sans-serif;letter-spacing:0px;word-spacing:0px;white-space:pre;shape-inside:url(#rect835-1-6);fill:#ffff00;fill-opacity:1;stroke:none">
        <path
           d="m 126.70905,175.05734 c 1.2,0 1.728,-0.528 1.728,-1.728 v -10.656 h 8.016 v 10.656 c 0,1.2 0.528,1.728 1.728,1.728 h 7.44 c 1.2,0 1.728,-0.528 1.728,-1.728 v -31.104 c 0,-1.2 -0.528,-1.728 -1.728,-1.728 h -7.44 c -1.2,0 -1.728,0.528 -1.728,1.728 v 10.416 h -8.016 v -10.416 c 0,-1.2 -0.528,-1.728 -1.728,-1.728 h -7.44 c -1.2,0 -1.728,0.528 -1.728,1.728 v 31.104 c 0,1.2 0.528,1.728 1.728,1.728 z"
           style="font-style:normal;font-variant:normal;font-weight:normal;font-stretch:normal;font-size:48px;font-family:Bungee;-inkscape-font-specification:Bungee;text-align:center;text-anchor:middle;fill:#ffff00;fill-opacity:1"
           id="path988" />
        <path
           d="m 177.973,175.05734 c 1.2,0 1.728,-0.528 1.728,-1.728 v -5.616 c 0,-1.2 -0.528,-1.728 -1.728,-1.728 h -13.248 v -4.128 h 9.36 c 1.2,0 1.728,-0.528 1.728,-1.728 v -5.136 c 0,-1.2 -0.528,-1.728 -1.728,-1.728 h -9.36 v -3.696 h 13.248 c 1.2,0 1.728,-0.528 1.728,-1.728 v -5.616 c 0,-1.2 -0.528,-1.728 -1.728,-1.728 h -22.272 c -1.2,0 -1.728,0.528 -1.728,1.728 v 31.104 c 0,1.2 0.528,1.728 1.728,1.728 z"
           style="font-style:normal;font-variant:normal;font-weight:normal;font-stretch:normal;font-size:48px;font-family:Bungee;-inkscape-font-specification:Bungee;text-align:center;text-anchor:middle;fill:#ffff00;fill-opacity:1"
           id="path990" />
        <path
           d="m 196.21296,149.13734 h 3.6 c 1.68,0 2.112,0.96 2.112,2.256 v 1.632 c 0,1.296 -0.432,2.256 -2.112,2.256 h -3.6 z m -1.728,25.92 c 1.2,0 1.728,-0.528 1.728,-1.728 v -9.408 h 6.72 c 1.344,0 1.824,0.624 1.824,2.064 v 7.344 c 0,1.2 0.528,1.728 1.728,1.728 h 7.44 c 1.2,0 1.728,-0.528 1.728,-1.728 v -10.176 c 0,-4.032 -2.304,-6.576 -5.808,-6.96 2.016,-0.864 2.688,-2.784 2.688,-5.472 v -2.208 c 0,-4.752 -2.256,-8.016 -9.456,-8.016 h -15.984 c -1.2,0 -1.728,0.528 -1.728,1.728 v 31.104 c 0,1.2 0.528,1.728 1.728,1.728 z"
           style="font-style:normal;font-variant:normal;font-weight:normal;font-stretch:normal;font-size:48px;font-family:Bungee;-inkscape-font-specification:Bungee;text-align:center;text-anchor:middle;fill:#ffff00;fill-opacity:1"
           id="path992" />
        <path
           d="m 245.02887,175.05734 c 1.2,0 1.728,-0.528 1.728,-1.728 v -5.616 c 0,-1.2 -0.528,-1.728 -1.728,-1.728 h -13.248 v -4.128 h 9.36 c 1.2,0 1.728,-0.528 1.728,-1.728 v -5.136 c 0,-1.2 -0.528,-1.728 -1.728,-1.728 h -9.36 v -3.696 h 13.248 c 1.2,0 1.728,-0.528 1.728,-1.728 v -5.616 c 0,-1.2 -0.528,-1.728 -1.728,-1.728 h -22.272 c -1.2,0 -1.728,0.528 -1.728,1.728 v 31.104 c 0,1.2 0.528,1.728 1.728,1.728 z"
           style="font-style:normal;font-variant:normal;font-weight:normal;font-stretch:normal;font-size:48px;font-family:Bungee;-inkscape-font-specification:Bungee;text-align:center;text-anchor:middle;fill:#ffff00;fill-opacity:1"
           id="path994" />
      </g>
    </g>
  </g>
</svg>
